<?xml version="1.0" standalone="no"?>
<!DOCTYPE svg PUBLIC "-//W3C//DTD SVG 20010904//EN"
 "http://www.w3.org/TR/2001/REC-SVG-20010904/DTD/svg10.dtd">
<svg version="1.0" xmlns="http://www.w3.org/2000/svg"
 width="1024.000000pt" height="1024.000000pt" viewBox="0 0 1024.000000 1024.000000"
 preserveAspectRatio="xMidYMid meet">
<metadata>
Created by potrace 1.14, written by Peter Selinger 2001-2017
</metadata>
<g transform="translate(0.000000,1024.000000) scale(0.100000,-0.100000)"
fill="#000000" stroke="none">
<path d="M4915 9102 c-2 -2 -36 -5 -76 -8 -41 -3 -103 -7 -139 -9 -36 -2 -74
-6 -85 -8 -11 -3 -47 -8 -80 -12 -32 -4 -68 -9 -80 -11 -11 -2 -37 -6 -59 -9
-21 -3 -66 -11 -100 -19 -33 -8 -77 -17 -96 -20 -19 -3 -69 -15 -110 -27 -41
-11 -82 -22 -90 -23 -8 -2 -22 -6 -30 -9 -59 -22 -114 -36 -121 -31 -5 3 -9 1
-9 -4 0 -5 -12 -12 -27 -15 -16 -3 -41 -11 -58 -18 -16 -7 -33 -13 -37 -14 -5
-2 -10 -4 -13 -5 -3 -1 -8 -3 -12 -5 -5 -1 -16 -5 -25 -8 -10 -4 -26 -10 -35
-14 -10 -3 -20 -7 -23 -8 -28 -10 -111 -46 -228 -101 -51 -24 -96 -44 -99 -44
-3 0 -18 -9 -34 -21 -16 -11 -29 -18 -29 -15 0 3 -34 -15 -75 -39 -42 -25 -78
-45 -81 -45 -8 0 -89 -55 -92 -62 -2 -5 -8 -8 -14 -8 -13 0 -232 -150 -236
-161 -2 -5 -8 -9 -13 -9 -8 0 -35 -20 -64 -47 -8 -7 -18 -13 -23 -13 -6 0 -12
-3 -14 -7 -1 -5 -43 -42 -93 -83 -107 -88 -378 -356 -460 -455 -32 -38 -62
-71 -67 -73 -4 -2 -8 -10 -8 -17 0 -7 -4 -15 -8 -17 -4 -1 -33 -37 -65 -78
-75 -98 -68 -89 -102 -140 -16 -25 -35 -51 -42 -58 -6 -6 -15 -21 -18 -32 -3
-11 -11 -20 -16 -20 -5 0 -9 -4 -9 -9 0 -5 -29 -58 -66 -117 -70 -117 -203
-382 -253 -504 -38 -95 -82 -210 -86 -230 -2 -8 -11 -35 -20 -60 -9 -25 -18
-52 -21 -60 -2 -8 -11 -40 -19 -70 -8 -30 -18 -68 -21 -84 -2 -16 -10 -38 -16
-50 -6 -11 -10 -22 -9 -24 2 -2 -2 -25 -24 -132 -3 -14 -7 -37 -10 -52 -2 -15
-6 -32 -10 -37 -3 -6 -8 -32 -10 -58 -3 -26 -7 -59 -10 -73 -6 -25 -7 -37 -21
-155 -12 -114 -14 -141 -19 -344 -3 -111 -8 -207 -11 -212 -3 -5 -2 -9 3 -9 4
0 9 -35 9 -78 1 -42 4 -93 7 -112 13 -81 19 -115 23 -119 2 -2 -15 -25 -39
-51 -62 -68 -142 -160 -197 -227 -22 -26 -148 -185 -166 -208 -8 -11 -39 -51
-68 -90 -77 -102 -226 -322 -226 -334 0 -6 -4 -11 -10 -11 -5 0 -10 -7 -10
-15 0 -8 -4 -15 -10 -15 -5 0 -10 -6 -10 -13 0 -8 -9 -24 -20 -37 -11 -13 -20
-29 -20 -36 0 -7 -3 -14 -7 -16 -5 -1 -21 -30 -38 -63 -16 -33 -33 -62 -37
-65 -3 -3 -27 -50 -53 -105 -60 -127 -69 -148 -67 -158 1 -4 -2 -7 -6 -7 -5 0
-9 -6 -9 -12 -1 -7 -13 -44 -28 -83 -24 -63 -69 -215 -81 -272 -24 -123 -27
-160 -28 -298 -1 -171 8 -232 56 -369 40 -116 77 -181 166 -294 67 -86 97
-115 187 -183 54 -40 160 -107 160 -100 0 1 23 -9 50 -22 60 -31 207 -80 275
-93 8 -2 31 -6 50 -10 19 -3 47 -8 63 -10 15 -2 39 -6 55 -9 59 -11 205 -19
357 -19 155 0 382 11 395 19 3 2 32 6 65 10 32 3 70 7 84 10 14 2 46 7 71 10
25 4 79 13 120 21 41 8 90 17 109 20 19 2 37 6 41 9 4 2 22 7 41 10 19 3 81
17 139 31 58 14 112 27 120 29 8 2 74 20 145 40 72 20 135 38 140 39 6 1 16 5
23 9 6 5 12 5 12 1 0 -3 6 -2 13 4 6 5 28 13 47 18 47 10 47 10 115 34 33 12
65 23 72 24 7 1 16 5 19 9 4 4 14 7 21 7 8 0 58 16 111 36 212 78 468 176 477
183 6 4 28 13 50 20 41 14 94 36 181 77 28 13 54 24 57 24 3 0 38 15 79 34 40
18 127 58 193 89 218 100 380 180 387 191 4 6 8 8 8 4 0 -11 347 170 618 324
57 32 107 58 112 58 5 0 10 3 12 8 2 4 23 18 48 31 25 14 96 55 159 93 62 37
118 68 122 68 5 0 9 5 9 10 0 6 7 10 15 10 8 0 15 4 15 10 0 5 3 9 8 8 4 -1
18 5 32 14 96 61 142 88 150 88 6 0 10 4 10 9 0 4 20 19 45 32 25 13 45 27 45
31 0 5 4 8 9 8 5 0 36 17 68 38 32 21 96 63 143 93 190 121 415 272 418 280 2
5 8 9 13 9 6 0 34 18 64 40 30 22 58 40 64 40 5 0 11 3 13 8 2 4 57 45 123 92
66 46 134 94 150 107 17 13 35 27 40 31 6 4 46 34 90 67 44 32 84 62 90 67 5
4 35 27 65 51 30 23 57 45 58 49 2 5 10 8 17 8 7 0 15 3 17 8 2 4 48 43 103
86 55 44 107 86 116 95 9 9 29 25 45 36 15 11 35 27 43 36 9 8 38 33 65 55 28
21 62 50 77 64 15 14 53 48 85 75 128 112 152 133 319 290 151 142 280 271
417 416 108 115 121 129 206 229 26 30 54 61 62 70 19 21 40 46 114 140 33 41
63 77 66 80 3 3 17 20 30 39 13 18 35 46 49 61 30 31 44 47 127 150 49 61 101
129 186 245 4 5 24 31 43 58 19 26 32 47 27 47 -4 0 -2 4 4 8 11 8 88 124 120
182 10 19 22 37 26 40 26 20 223 456 232 515 1 6 5 16 10 23 4 7 5 16 2 19 -3
3 -2 11 3 17 8 10 15 41 36 146 24 118 27 358 7 460 -42 207 -141 392 -291
541 -72 72 -188 159 -210 159 -6 0 -11 4 -11 8 0 5 -21 18 -47 30 -53 23 -197
83 -200 83 -2 0 -8 1 -15 3 -14 5 -91 24 -123 31 -148 34 -296 49 -505 49
-135 0 -295 -8 -365 -19 -16 -2 -55 -7 -85 -10 -68 -6 -117 -13 -150 -20 -14
-3 -41 -7 -60 -10 -19 -3 -46 -8 -60 -11 -14 -3 -34 -7 -46 -9 -28 -4 -146
-28 -196 -40 -13 -3 -41 -10 -63 -14 -31 -7 -191 -49 -325 -86 -8 -2 -53 -16
-100 -30 -47 -14 -92 -28 -100 -30 -8 -1 -42 -12 -75 -24 -75 -27 -92 -26
-135 2 -95 65 -491 264 -540 273 -3 0 -18 6 -35 13 -165 70 -590 190 -729 206
-21 3 -64 9 -95 14 -125 21 -176 27 -356 37 -137 7 -384 11 -390 6z m4125
-966 c25 -4 52 -8 60 -10 8 -1 33 -6 55 -10 64 -12 172 -56 223 -90 88 -59
135 -145 142 -261 3 -55 -8 -169 -20 -215 -7 -25 -13 -49 -15 -55 -1 -5 -4
-17 -7 -25 -3 -8 -16 -44 -28 -80 -13 -36 -41 -103 -63 -150 -22 -47 -41 -87
-41 -90 -1 -3 -11 -21 -24 -41 -12 -20 -22 -41 -22 -48 0 -6 -3 -11 -7 -11 -5
0 -19 -23 -32 -50 -14 -28 -28 -50 -32 -50 -4 0 -9 -8 -13 -17 -5 -16 -19 -40
-39 -67 -46 -64 -117 -167 -117 -171 0 -3 -7 -13 -15 -22 -8 -10 -49 -63 -92
-118 -82 -106 -102 -130 -106 -124 -2 2 -18 45 -36 94 -18 50 -39 104 -46 120
-61 141 -85 195 -136 298 -33 64 -77 150 -100 190 -23 39 -50 87 -60 105 -30
53 -176 267 -193 285 -9 8 -16 18 -16 21 0 10 -121 158 -205 251 -11 12 -64
67 -119 122 l-99 101 59 13 c33 7 64 14 69 14 6 1 35 7 65 13 30 6 69 14 85
17 17 2 41 7 55 10 35 7 76 13 129 21 25 3 57 8 71 10 42 8 112 15 172 17 32
1 58 4 58 7 0 7 385 3 440 -4z m-7674 -4382 c1 -11 4 -20 67 -168 68 -161 208
-436 258 -508 11 -14 19 -31 19 -37 0 -6 5 -11 10 -11 6 0 10 -7 10 -15 0 -8
5 -15 10 -15 6 0 10 -6 10 -13 0 -7 9 -23 20 -35 11 -12 20 -24 20 -27 0 -7
79 -125 90 -135 3 -3 23 -30 45 -60 41 -58 51 -70 85 -107 11 -13 20 -26 20
-29 0 -3 6 -11 13 -18 6 -7 30 -34 52 -61 45 -53 89 -101 175 -191 l59 -61
-37 -11 c-32 -9 -211 -43 -297 -56 -16 -2 -48 -7 -71 -11 -23 -3 -63 -9 -90
-11 -27 -3 -62 -7 -79 -9 -132 -17 -455 -24 -520 -10 -16 3 -46 8 -65 10 -43
6 -130 24 -150 32 -8 3 -20 7 -26 8 -6 2 -35 15 -66 30 -141 69 -207 184 -203
350 3 77 12 152 22 167 2 5 6 16 8 25 5 27 45 143 62 183 51 114 191 372 212
390 3 3 19 25 35 50 47 74 220 300 228 300 4 0 8 4 8 9 0 5 10 21 23 35 21 25
41 29 43 10z"/>
<path d="M8992 4761 c-34 -33 -96 -90 -138 -128 -42 -37 -96 -86 -119 -108
-24 -22 -54 -49 -67 -59 -23 -19 -220 -188 -268 -230 -14 -12 -52 -44 -85 -70
-33 -27 -62 -52 -65 -55 -3 -4 -56 -47 -119 -96 -63 -50 -125 -100 -138 -112
-13 -13 -28 -23 -33 -23 -4 0 -10 -4 -12 -8 -1 -4 -41 -37 -88 -72 -47 -36
-90 -69 -96 -75 -7 -5 -24 -19 -40 -30 -15 -11 -33 -26 -41 -33 -7 -7 -13 -10
-13 -6 0 4 -6 1 -12 -8 -11 -13 -98 -79 -246 -186 -13 -9 -51 -38 -85 -63 -34
-25 -156 -112 -272 -192 -115 -81 -214 -150 -220 -155 -5 -4 -28 -19 -50 -32
-22 -13 -42 -27 -45 -30 -10 -12 -140 -90 -150 -90 -5 0 -10 -4 -10 -9 0 -5
-10 -13 -22 -17 -13 -3 -36 -16 -53 -28 -16 -11 -46 -30 -66 -41 -20 -11 -86
-49 -148 -85 -61 -36 -128 -74 -149 -85 -20 -11 -39 -22 -42 -26 -3 -3 -23
-14 -45 -26 -22 -11 -58 -31 -80 -43 -22 -13 -65 -36 -95 -52 -30 -16 -59 -33
-65 -38 -5 -4 -48 -28 -95 -52 -47 -25 -137 -73 -200 -106 -63 -34 -185 -97
-270 -139 -85 -43 -158 -82 -161 -86 -3 -5 -9 -8 -13 -8 -3 0 -74 -32 -158
-73 -156 -75 -169 -81 -363 -168 -60 -27 -119 -53 -130 -58 -43 -19 -113 -49
-165 -70 -30 -12 -69 -29 -87 -36 -17 -8 -73 -30 -125 -49 -51 -20 -105 -42
-120 -50 -15 -9 -30 -14 -35 -13 -4 1 -26 -6 -48 -16 -21 -9 -46 -18 -55 -20
-8 -1 -26 -8 -40 -14 -14 -6 -61 -23 -104 -38 -71 -25 -77 -29 -55 -37 13 -5
38 -16 56 -23 17 -8 36 -14 43 -14 7 0 26 -6 43 -14 27 -11 133 -46 160 -52 4
-1 8 -2 10 -4 1 -1 9 -3 17 -5 8 -2 76 -20 150 -39 74 -19 149 -37 165 -39 17
-3 41 -8 55 -11 29 -7 75 -16 110 -21 14 -2 36 -6 50 -8 14 -2 50 -7 80 -11
30 -4 69 -10 85 -13 73 -12 348 -26 490 -25 173 1 453 21 540 38 11 3 39 7 61
10 23 2 53 7 65 10 61 13 75 16 94 19 59 9 101 18 108 22 4 2 20 7 35 9 80 14
471 135 497 153 6 4 39 18 75 31 36 14 95 39 133 57 37 18 74 33 81 33 8 0 16
4 18 9 2 4 23 18 48 29 72 33 232 122 267 148 17 13 38 24 46 24 9 0 17 4 19
8 2 4 37 30 78 57 41 27 81 55 88 62 7 7 16 13 20 13 4 0 19 10 34 23 14 12
36 29 48 37 13 8 48 35 79 60 31 24 61 48 66 52 46 37 218 193 287 262 124
124 278 302 388 451 25 33 48 62 51 65 3 3 13 19 22 37 9 17 22 37 30 45 7 7
24 31 37 53 13 22 27 42 30 45 4 3 10 12 13 20 4 8 17 32 30 52 55 92 107 186
107 196 0 6 3 12 8 14 7 3 58 94 63 113 1 6 20 48 42 95 50 109 100 232 138
340 34 97 96 303 103 340 2 14 13 61 24 105 11 44 24 100 28 125 4 25 8 47 9
50 3 10 16 96 20 127 2 18 6 36 8 40 3 4 8 48 12 98 4 49 9 93 12 97 15 25
-22 0 -75 -51z"/>
</g>
</svg>
